<?xml version="1.0" encoding="UTF-8" standalone="no"?>
<svg
   version="1.1"
   width="739.21332"
   height="299.30667"
   viewBox="0 0 739.21332 299.30667"
   xmlns="http://www.w3.org/2000/svg">
  <defs>
    <style>
      @import url('https://fonts.googleapis.com/css2?family=DM+Sans:wght@300;400&amp;display=swap');
    </style>
  </defs>
  <g id="awhi-mark">
      <path
         id="path16"
         d="M 921.953,1166.66 673.691,1719.69 H 663.602 L 417.371,1166.66 Z M 7.64063,738.77 627.273,2097.12 c 6.051,12.11 24.219,22.21 34.309,22.21 h 20.18 c 10.101,0 28.261,-10.1 34.324,-22.21 L 1331.68,738.77 c 12.12,-26.239 -4.04,-52.481 -34.31,-52.481 h -127.15 c -24.23,0 -38.34,12.109 -46.43,30.27 L 998.641,993.09 h -660 C 298.281,900.238 255.902,809.41 215.523,716.559 209.465,702.43 193.324,686.289 169.102,686.289 H 41.9414 c -30.2656,0 -46.41796,26.242 -34.30077,52.481"
         style="fill:#99cc99;fill-opacity:1;fill-rule:nonzero;stroke:none"
         transform="matrix(0.13333333,0,0,-0.13333333,0,299.30667)" />
      <path
         id="path17"
         d="m 1432.56,2050.7 c -8.07,28.26 8.07,48.44 36.33,48.44 h 135.23 c 16.15,0 32.29,-14.13 36.34,-28.26 l 244.21,-926.42 h 8.08 l 328.98,952.66 c 4.05,12.12 18.18,22.2 34.33,22.2 h 36.33 c 16.14,0 30.27,-10.08 34.3,-22.2 l 333.03,-952.66 h 8.08 l 240.17,926.42 c 4.05,14.13 20.19,28.26 36.34,28.26 h 135.23 c 28.26,0 44.4,-20.18 36.33,-48.44 L 2734.41,694.359 c -4.05,-16.148 -20.19,-28.238 -36.34,-28.238 h -32.29 c -14.13,0 -30.28,10.07 -34.32,22.188 L 2276.24,1691.44 h -10.1 L 1916.96,688.309 c -4.02,-12.118 -20.18,-22.188 -34.3,-22.188 h -32.3 c -16.15,0 -32.3,12.09 -36.33,28.238 L 1432.56,2050.7"
         style="fill:#99cc99;fill-opacity:1;fill-rule:nonzero;stroke:none"
         transform="matrix(0.13333333,0,0,-0.13333333,0,299.30667)" />
      <path
         id="path18"
         d="M 3740.33,1307.95 V 724.641 c 0,-20.18 -16.15,-38.352 -38.35,-38.352 h -133.22 c -20.17,0 -38.34,18.172 -38.34,38.352 V 2060.8 c 0,20.18 18.17,38.35 38.34,38.35 h 133.22 c 22.2,0 38.35,-18.17 38.35,-38.35 v -563.12 -189.73"
         style="fill:#99cc99;fill-opacity:1;fill-rule:nonzero;stroke:none"
         transform="matrix(0.13333333,0,0,-0.13333333,0,299.30667)" />
      <path
         id="path19"
         d="m 5309.7,2060.79 c 0,20.19 18.17,38.35 38.35,38.35 h 133.2 c 20.19,0 38.35,-18.16 38.35,-38.35 V 724.641 c 0,-20.18 -18.16,-38.352 -38.35,-38.352 h -133.2 c -20.18,0 -38.35,18.172 -38.35,38.352 V 2060.79"
         style="fill:#99cc99;fill-opacity:1;fill-rule:nonzero;stroke:none"
         transform="matrix(0.13333333,0,0,-0.13333333,0,299.30667)" />
      <path
         id="path20"
         d="m 4428.96,1497.67 v 153.96 c 0,20.17 16.14,38.34 38.35,38.34 h 133.21 c 20.18,0 38.35,-18.17 38.35,-38.34 V 724.641 c 0,-20.18 -18.17,-38.352 -38.35,-38.352 h -133.21 c -22.21,0 -38.35,18.172 -38.35,38.352 v 583.299 189.73"
         style="fill:#99cc99;fill-opacity:1;fill-rule:nonzero;stroke:none"
         transform="matrix(0.13333333,0,0,-0.13333333,0,299.30667)" />
      <path
         id="path21"
         d="m 3271.08,1376.42 c 4.32,-1.9 7.2,-0.94 9,-0.84 38.95,1.81 129.48,1.46 397.29,-8.95 70.75,-2.75 208.49,-22.61 238.76,-27.68 27.42,-4.59 54.63,-10.26 81.52,-17.36 29.2,-7.71 58.88,-13.43 88.15,-20.93 30.14,-7.73 60.64,-14.25 91.22,-20.13 30.08,-5.78 60.09,-12.01 90.69,-15.17 23.36,-2.42 46.6,-6.1 70.09,-7.28 19.14,-0.97 38.32,-2.27 57.46,-2.03 24.92,0.3 49.85,1.42 74.71,3.16 39.3,2.74 78.07,9.22 116.31,18.74 24.68,6.14 49.26,12.67 73.21,21.25 31.57,11.31 62.61,23.84 93.06,38.09 28.36,13.28 54.96,29.37 81.84,45.09 16.12,9.43 30.88,20.96 45.52,32.61 27.15,21.63 51.08,46.47 72.99,73.23 21.9,26.73 41.58,54.93 56.9,86.21 9.93,20.28 19.38,40.7 26.98,61.91 7.92,22.12 13.48,44.93 18.15,68.01 5.84,28.86 7.29,58 7.54,87.25 0.22,26.41 -2.46,52.57 -7.09,78.65 -4.64,26.07 -12.1,51.29 -20.25,76.37 -5.33,16.43 -12.9,31.97 -19.46,47.92 -7.15,17.39 -16.49,33.52 -25.88,49.67 -24.85,42.84 -57.26,79.22 -95.62,110.19 -32.22,26.01 -67.07,47.9 -105.61,63.61 -58.08,23.68 -118.03,32.12 -180.38,23.53 -35.35,-4.86 -69.55,-13.72 -102.79,-26.59 -26.06,-10.11 -50.5,-23.42 -73.7,-38.77 -24.05,-15.93 -46.07,-34.72 -64.58,-56.86 -27.51,-32.95 -49.21,-69.43 -64.32,-109.95 -7.79,-20.89 -11.37,-42.54 -16.11,-64.02 -1.66,-7.42 -1.79,-15.24 -2,-22.89 -1.1,-41.16 4.72,-81.36 18.68,-120.1 6.18,-17.1 14.03,-33.6 21.24,-50.31 1.32,-3.07 3.09,-5.98 4.91,-8.79 26.18,-40.77 59.51,-73.76 103.63,-94.93 31.12,-14.94 63.68,-23.44 98.5,-23.14 36.44,0.33 71.23,7.67 105.09,21 24.98,9.83 46.84,24 65.82,42.76 22.27,21.98 38.26,47.44 46.22,78.17 8.69,33.48 8.21,66.55 -1.55,99.37 -10.6,35.68 -31.05,65.15 -62.62,84.95 -28.95,18.15 -60.7,22.3 -93.92,11.15 -15.8,-5.32 -29.18,-14.07 -41.68,-24.77 -15.28,-13.1 -24.12,-29.63 -27.02,-49.34 -1.91,-12.89 -1.96,-25.81 1.38,-38.56 1.24,-4.64 2.28,-9.33 3.37,-13.99 3.1,-13.29 8.67,-25.21 17.59,-35.77 6.79,-8.04 12.62,-16.83 20.37,-24.12 4.32,-4.06 3.38,-8.72 -1.87,-11.88 -11.18,-6.74 -23.55,-8.66 -36.08,-6.12 -27.26,5.53 -49.77,19.23 -67.16,41.21 -14.51,18.36 -23.99,39.25 -29.47,61.71 -7.14,29.27 -7.48,58.72 0.12,88.27 10.89,42.27 34.65,75.32 69.62,100.78 7.34,5.36 14.1,11.49 22.25,15.79 43.02,22.69 110.69,33.11 159.03,25.39 11.33,-1.81 22.38,-5.33 33.54,-8.12 1.86,-0.46 4,-1.12 3.72,-3.55 -0.14,-1.24 -1.08,-2.73 -2.11,-3.48 -8.89,-6.51 -17.72,-13.11 -26.89,-19.21 -6.99,-4.66 -12.29,-10.78 -16.6,-17.7 -11.66,-18.76 -1.36,-44.12 19.74,-49.56 10.71,-2.76 18.92,1.38 25.55,9.1 6.36,7.4 6.18,15.64 0.39,25.31 -0.49,0.82 -1.09,1.58 -1.61,2.38 -5.99,9.4 -5.4,12.29 4.06,18.23 2.83,1.78 5.85,3.36 8.97,4.54 10.82,4.07 22.05,6.58 33.48,8.21 6.37,0.91 12.22,-0.2 17.87,-3.68 26.9,-16.61 49.61,-37.56 67.27,-63.87 2.4,-3.58 5.1,-6.95 7.64,-10.44 1.97,-2.71 4.54,-5.19 5.76,-8.21 6.85,-16.89 17.15,-32.15 23.04,-49.48 10.21,-30.05 17.92,-60.69 22.13,-92.19 1.8,-13.38 1.18,-26.8 0.88,-40.24 -0.68,-32.38 -6.8,-63.92 -16.96,-94.5 -8.32,-25.07 -19.73,-48.91 -34.75,-70.82 -1.6,-2.34 -3.44,-4.6 -5.51,-6.53 -1.55,-1.43 -3.79,-1.25 -5.11,0.43 -1.45,1.83 -2.71,3.96 -3.47,6.17 -2.32,6.8 -4.48,13.67 -6.5,20.57 -3.15,10.69 -8.5,20.28 -13.97,29.9 -4.95,8.71 -12.48,14.25 -20.62,19.52 -10.73,6.96 -31.64,2.62 -39.45,-7.41 -6.78,-8.69 -8.86,-17.87 -4.87,-28.24 4.63,-12.03 16.02,-16.94 28.01,-12.12 15.63,6.26 16.33,6.37 21.58,-8.84 8.31,-24.08 7.69,-48.1 -3.27,-71.4 -6.19,-13.15 -17.56,-21.5 -29.29,-28.96 -15.36,-9.79 -31.35,-18.58 -47.01,-27.9 -47.8,-28.45 -99.59,-46.89 -152.99,-61.42 -49.82,-13.55 -100.7,-19.75 -152.13,-21.14 -32.57,-0.87 -65.21,-0.56 -97.7,2.91 -2.37,0.26 -4.76,0.6 -7.08,1.15 -3.35,0.8 -4.56,4.16 -2.22,6.54 2.66,2.73 5.52,5.32 8.56,7.62 12.68,9.64 23.23,20.86 32.87,33.54 4.69,6.19 8.78,13.55 12.51,20.24 5.65,10.15 7,19.18 7.99,32.1 1.71,22.54 -11.19,40.44 -32.75,44.1 -11.37,1.93 -22.48,-2.49 -27.39,-11.48 -6.34,-11.57 -6.55,-25.25 10.11,-33.75 2.96,-1.5 6.38,-2.06 9.53,-3.21 6.9,-2.48 8.03,-5.23 4.46,-12 -2.45,-4.66 -4.96,-9.39 -8.15,-13.53 -12.11,-15.72 -26.43,-29.04 -43.61,-39.17 -22.1,-13.09 -46.29,-18.64 -71.63,-17.8 -12.32,0.41 -24.62,3.69 -36.8,6.16 -23.48,4.73 -46.89,9.8 -70.33,14.75 -2.34,0.49 -4.68,1.04 -7.02,1.56 -35.07,7.83 -70.02,16.34 -105.27,23.23 -21.23,4.15 -41.91,10.27 -62.99,14.79 -60.06,12.87 -112.66,22.27 -173.67,28.9 -50.25,5.46 -220.51,20.2 -228.51,20.85 -38.2,3.04 -81.76,2.18 -108.5,-0.76 -8.91,-0.98 -20.17,-2.57 -26.25,-4.07 -4.03,-0.97 -9.98,-6.98 -13.75,-10.98 -37.6,-40.03 -116.31,-121.09 -117.79,-152.86 -0.12,-2.75 1.2,-7.36 4.81,-8.95"
         style="fill:#99cc99;fill-opacity:1;fill-rule:nonzero;stroke:none"
         transform="matrix(0.13333333,0,0,-0.13333333,0,299.30667)" />
  </g>
  <text
    x="369.6"
    y="288"
    font-family="'DM Sans', 'Gill Sans', Futura, sans-serif"
    font-weight="500"
    font-size="52"
    fill="#aeacac"
    text-anchor="middle"
    letter-spacing="10">YOGA SCHOOL</text>
</svg>