<?xml version="1.0" encoding="UTF-8" standalone="no"?>
<!-- Created with Inkscape (http://www.inkscape.org/) -->

<svg
   version="1.1"
   id="svg1"
   width="739.21332"
   height="299.30667"
   viewBox="0 0 739.21332 299.30667"
   sodipodi:docname="Awhi_WHITE (2).eps"
   xmlns:inkscape="http://www.inkscape.org/namespaces/inkscape"
   xmlns:sodipodi="http://sodipodi.sourceforge.net/DTD/sodipodi-0.dtd"
   xmlns="http://www.w3.org/2000/svg"
   xmlns:svg="http://www.w3.org/2000/svg">
  <defs
     id="defs1" />
  <sodipodi:namedview
     id="namedview1"
     pagecolor="#ffffff"
     bordercolor="#000000"
     borderopacity="0.25"
     inkscape:showpageshadow="2"
     inkscape:pageopacity="0.0"
     inkscape:pagecheckerboard="0"
     inkscape:deskcolor="#d1d1d1">
    <inkscape:page
       x="0"
       y="0"
       inkscape:label="1"
       id="page1"
       width="739.21332"
       height="299.30667"
       margin="0"
       bleed="0" />
  </sodipodi:namedview>
  <g
     id="g1"
     inkscape:groupmode="layer"
     inkscape:label="1">
    <g
       id="group-R5">
      <path
         id="path2"
         d="M 99.5234,151.262 0,324.441 h 52.918 l 69.711,-121.839 69.898,121.839 h 52.922 L 145.531,151.262 V 19.5508 H 99.5234 V 151.262"
         style="fill:#ffffff;fill-opacity:1;fill-rule:nonzero;stroke:none"
         transform="matrix(0.13333333,0,0,-0.13333333,0,299.30667)" />
      <path
         id="path3"
         d="m 389.039,172.789 c 0,-33.711 11.32,-61.41 33.965,-83.1406 22.508,-21.7187 48.512,-32.5781 77.996,-32.5781 31.992,0 58.977,11.0586 80.965,33.1797 21.98,22.371 32.976,49.629 32.976,81.738 0,32.524 -10.859,59.774 -32.582,81.762 -21.593,22.109 -48.316,33.18 -80.171,33.18 -31.727,0 -58.516,-11.071 -80.372,-33.18 -21.851,-21.852 -32.777,-48.852 -32.777,-80.961 z m -46.402,0.59 c 0,42.91 15.726,79.781 47.191,110.582 31.328,30.809 68.981,46.211 112.949,46.211 43.446,0 80.7,-15.543 111.77,-46.602 31.199,-31.082 46.797,-68.39 46.797,-111.968 0,-43.832 -15.664,-81.0317 -46.996,-111.5707 -31.465,-30.6719 -69.446,-46 -113.938,-46 -39.363,0 -74.711,13.6171 -106.039,40.8593 -34.492,30.1485 -51.734,69.6404 -51.734,118.4884"
         style="fill:#ffffff;fill-opacity:1;fill-rule:nonzero;stroke:none"
         transform="matrix(0.13333333,0,0,-0.13333333,0,299.30667)" />
      <path
         id="path4"
         d="m 969.008,178.309 h 125.982 v -10.071 c 0,-22.91 -2.7,-43.179 -8.1,-60.82 -5.26,-16.3164 -14.15,-31.5899 -26.66,-45.8086 -28.3,-31.8477 -64.3,-47.7813 -108.007,-47.7813 -42.653,0 -79.188,15.4024 -109.59,46.2032 -30.41,30.9375 -45.617,68.0587 -45.617,111.3787 0,44.231 15.464,81.75 46.402,112.551 30.937,30.93 68.59,46.398 112.953,46.398 23.824,0 46.079,-4.871 66.749,-14.609 19.74,-9.738 39.16,-25.539 58.25,-47.391 l -32.79,-31.39 c -25.01,33.301 -55.478,49.961 -91.424,49.961 -32.254,0 -59.304,-11.141 -81.156,-33.379 -21.855,-21.86 -32.777,-49.242 -32.777,-82.141 0,-33.969 12.172,-61.941 36.527,-83.9295 22.773,-20.4102 47.461,-30.6016 74.055,-30.6016 22.64,0 42.976,7.6211 61.015,22.9024 18.03,15.3984 28.1,33.8397 30.21,55.2887 h -76.022 v 43.239"
         style="fill:#ffffff;fill-opacity:1;fill-rule:nonzero;stroke:none"
         transform="matrix(0.13333333,0,0,-0.13333333,0,299.30667)" />
      <path
         id="path5"
         d="m 1392.05,136.852 -45.22,103.668 -47.39,-103.668 z m 18.76,-43.2426 h -130.53 l -33.96,-74.0586 h -49.56 L 1347.62,343.602 1493.15,19.5508 h -50.35 l -31.99,74.0586"
         style="fill:#ffffff;fill-opacity:1;fill-rule:nonzero;stroke:none"
         transform="matrix(0.13333333,0,0,-0.13333333,0,299.30667)" />
      <path
         id="path6"
         d="m 1935.29,221.559 3.75,2.769 c 6.45,4.863 11.79,9.113 16,12.731 4.21,3.621 7.24,6.679 9.08,9.179 3.95,4.883 5.92,10.864 5.92,17.973 0,8.027 -2.7,14.551 -8.09,19.551 -5.4,5 -12.64,7.5 -21.72,7.5 -8.3,0 -15.27,-2.563 -20.93,-7.692 -5.67,-4.879 -8.49,-11.129 -8.49,-18.761 0,-8.957 3.55,-17.778 10.66,-26.469 l 11.45,-13.82 c 0.4,-0.661 1.19,-1.649 2.37,-2.961 z m -9.87,-58.25 -2.57,-1.77 c -18.83,-13.039 -31.66,-23.508 -38.5,-31.41 -6.72,-7.891 -10.08,-16.258 -10.08,-25.078 0,-12.6408 5.07,-24.2229 15.21,-34.7424 10.53,-10.1484 22.12,-15.207 34.75,-15.207 17.78,0 38.25,11.6484 61.41,34.9492 z m 36.53,25.863 54.9,-66.352 1.77,1.989 c 5.93,6.441 11.52,12.761 16.79,18.953 5.26,6.179 10.33,12.437 15.2,18.758 l 30.02,-30.809 c -3.69,-5.262 -8.53,-11.391 -14.52,-18.359 -5.99,-6.981 -13.13,-15.0122 -21.42,-24.0903 l 56.47,-69.7109 h -57.26 l -30.41,37.3281 c -27.91,-28.8398 -56.94,-43.25 -87.08,-43.25 -26.99,0 -49.9,8.6211 -68.72,25.8594 -18.43,17.3906 -27.65,38.8398 -27.65,64.3827 0,30.41 14.61,55.68 43.84,75.828 l 19.94,13.621 c 0.27,0.129 0.73,0.461 1.39,0.989 0.65,0.531 1.58,1.25 2.76,2.179 -20.14,21.453 -30.21,42.571 -30.21,63.383 0,20.527 6.71,37.25 20.14,50.149 13.69,12.898 31.33,19.359 52.92,19.359 20.93,0 38.24,-6.25 51.93,-18.758 13.7,-12.512 20.54,-28.301 20.54,-47.402 0,-13.16 -3.75,-25.071 -11.25,-35.739 -7.38,-10.66 -20.74,-23.421 -40.09,-38.308"
         style="fill:#ffffff;fill-opacity:1;fill-rule:nonzero;stroke:none"
         transform="matrix(0.13333333,0,0,-0.13333333,0,299.30667)" />
      <path
         id="path7"
         d="m 2463.53,324.441 79.38,-203.781 82.94,218.59 79.38,-218.59 84.32,203.781 h 49.96 L 2703.25,0.199219 2624.86,216.23 2543.11,0 2413.57,324.441 h 49.96"
         style="fill:#ffffff;fill-opacity:1;fill-rule:nonzero;stroke:none"
         transform="matrix(0.13333333,0,0,-0.13333333,0,299.30667)" />
      <path
         id="path8"
         d="M 3139.34,281.191 H 3017.1 V 207.93 h 118.69 V 164.691 H 3017.1 V 62.8008 h 122.24 v -43.25 H 2971.1 V 324.441 h 168.24 v -43.25"
         style="fill:#ffffff;fill-opacity:1;fill-rule:nonzero;stroke:none"
         transform="matrix(0.13333333,0,0,-0.13333333,0,299.30667)" />
      <path
         id="path9"
         d="M 3362.88,324.441 V 62.8008 h 89.64 v -43.25 H 3316.87 V 324.441 h 46.01"
         style="fill:#ffffff;fill-opacity:1;fill-rule:nonzero;stroke:none"
         transform="matrix(0.13333333,0,0,-0.13333333,0,299.30667)" />
      <path
         id="path10"
         d="M 3659.31,324.441 V 62.8008 h 89.65 v -43.25 H 3613.31 V 324.441 h 46"
         style="fill:#ffffff;fill-opacity:1;fill-rule:nonzero;stroke:none"
         transform="matrix(0.13333333,0,0,-0.13333333,0,299.30667)" />
      <path
         id="path11"
         d="m 3955.75,62.8008 h 28.43 c 20.81,0 36.07,4.0781 45.82,12.2383 10.27,8.8203 15.4,20.0117 15.4,33.5699 0,13.161 -4.94,24.219 -14.81,33.172 -9.61,8.821 -26.8,13.231 -51.54,13.231 h -23.3 z m 0,130.7192 h 14.41 c 17.11,0 29.66,3.789 37.62,11.359 7.97,7.562 11.95,18.723 11.95,33.461 0,14.351 -4.08,25.25 -12.24,32.691 -8.17,7.43 -20.01,11.149 -35.55,11.149 h -16.19 z M 3909.74,19.5508 V 324.441 h 45.81 c 20.4,0 36.66,-1.582 48.77,-4.742 12.25,-3.148 22.58,-8.488 31.01,-16 8.55,-7.758 15.33,-17.437 20.34,-29.019 5.13,-11.719 7.69,-23.559 7.69,-35.551 0,-21.848 -8.36,-40.348 -25.07,-55.488 16.19,-5.52 28.96,-15.2 38.31,-29.02 9.48,-13.691 14.22,-29.621 14.22,-47.793 0,-23.828 -8.43,-43.9686 -25.28,-60.4178 -10.13,-10.1407 -21.52,-17.1797 -34.16,-21.1289 -13.83,-3.8204 -31.14,-5.7305 -51.93,-5.7305 h -69.71"
         style="fill:#ffffff;fill-opacity:1;fill-rule:nonzero;stroke:none"
         transform="matrix(0.13333333,0,0,-0.13333333,0,299.30667)" />
      <path
         id="path12"
         d="M 4418.09,281.191 H 4295.85 V 207.93 h 118.69 V 164.691 H 4295.85 V 62.8008 h 122.24 v -43.25 H 4249.85 V 324.441 h 168.24 v -43.25"
         style="fill:#ffffff;fill-opacity:1;fill-rule:nonzero;stroke:none"
         transform="matrix(0.13333333,0,0,-0.13333333,0,299.30667)" />
      <path
         id="path13"
         d="M 4641.63,324.441 V 19.5508 h -46.01 V 324.441 h 46.01"
         style="fill:#ffffff;fill-opacity:1;fill-rule:nonzero;stroke:none"
         transform="matrix(0.13333333,0,0,-0.13333333,0,299.30667)" />
      <path
         id="path14"
         d="M 4824.11,19.5508 V 345.18 l 222.34,-232.621 v 211.882 h 46.01 V 0.988281 L 4870.11,233.012 V 19.5508 h -46"
         style="fill:#ffffff;fill-opacity:1;fill-rule:nonzero;stroke:none"
         transform="matrix(0.13333333,0,0,-0.13333333,0,299.30667)" />
      <path
         id="path15"
         d="m 5418.16,178.309 h 125.99 v -10.071 c 0,-22.91 -2.71,-43.179 -8.1,-60.82 -5.27,-16.3164 -14.16,-31.5899 -26.66,-45.8086 -28.31,-31.8477 -64.32,-47.7813 -108.02,-47.7813 -42.64,0 -79.18,15.4024 -109.59,46.2032 -30.41,30.9375 -45.61,68.0587 -45.61,111.3787 0,44.231 15.47,81.75 46.4,112.551 30.93,30.93 68.59,46.398 112.95,46.398 23.82,0 46.08,-4.871 66.74,-14.609 19.75,-9.738 39.17,-25.539 58.25,-47.391 l -32.77,-31.39 c -25.02,33.301 -55.49,49.961 -91.43,49.961 -32.25,0 -59.3,-11.141 -81.16,-33.379 -21.85,-21.86 -32.78,-49.242 -32.78,-82.141 0,-33.969 12.18,-61.941 36.53,-83.9295 22.77,-20.4102 47.46,-30.6016 74.05,-30.6016 22.64,0 42.98,7.6211 61.02,22.9024 18.04,15.3984 28.11,33.8397 30.21,55.2887 h -76.02 v 43.239"
         style="fill:#ffffff;fill-opacity:1;fill-rule:nonzero;stroke:none"
         transform="matrix(0.13333333,0,0,-0.13333333,0,299.30667)" />
      <path
         id="path16"
         d="M 921.953,1166.66 673.691,1719.69 H 663.602 L 417.371,1166.66 Z M 7.64063,738.77 627.273,2097.12 c 6.051,12.11 24.219,22.21 34.309,22.21 h 20.18 c 10.101,0 28.261,-10.1 34.324,-22.21 L 1331.68,738.77 c 12.12,-26.239 -4.04,-52.481 -34.31,-52.481 h -127.15 c -24.23,0 -38.34,12.109 -46.43,30.27 L 998.641,993.09 h -660 C 298.281,900.238 255.902,809.41 215.523,716.559 209.465,702.43 193.324,686.289 169.102,686.289 H 41.9414 c -30.2656,0 -46.41796,26.242 -34.30077,52.481"
         style="fill:#ffffff;fill-opacity:1;fill-rule:nonzero;stroke:none"
         transform="matrix(0.13333333,0,0,-0.13333333,0,299.30667)" />
      <path
         id="path17"
         d="m 1432.56,2050.7 c -8.07,28.26 8.07,48.44 36.33,48.44 h 135.23 c 16.15,0 32.29,-14.13 36.34,-28.26 l 244.21,-926.42 h 8.08 l 328.98,952.66 c 4.05,12.12 18.18,22.2 34.33,22.2 h 36.33 c 16.14,0 30.27,-10.08 34.3,-22.2 l 333.03,-952.66 h 8.08 l 240.17,926.42 c 4.05,14.13 20.19,28.26 36.34,28.26 h 135.23 c 28.26,0 44.4,-20.18 36.33,-48.44 L 2734.41,694.359 c -4.05,-16.148 -20.19,-28.238 -36.34,-28.238 h -32.29 c -14.13,0 -30.28,10.07 -34.32,22.188 L 2276.24,1691.44 h -10.1 L 1916.96,688.309 c -4.02,-12.118 -20.18,-22.188 -34.3,-22.188 h -32.3 c -16.15,0 -32.3,12.09 -36.33,28.238 L 1432.56,2050.7"
         style="fill:#ffffff;fill-opacity:1;fill-rule:nonzero;stroke:none"
         transform="matrix(0.13333333,0,0,-0.13333333,0,299.30667)" />
      <path
         id="path18"
         d="M 3740.33,1307.95 V 724.641 c 0,-20.18 -16.15,-38.352 -38.35,-38.352 h -133.22 c -20.17,0 -38.34,18.172 -38.34,38.352 V 2060.8 c 0,20.18 18.17,38.35 38.34,38.35 h 133.22 c 22.2,0 38.35,-18.17 38.35,-38.35 v -563.12 -189.73"
         style="fill:#ffffff;fill-opacity:1;fill-rule:nonzero;stroke:none"
         transform="matrix(0.13333333,0,0,-0.13333333,0,299.30667)" />
      <path
         id="path19"
         d="m 5309.7,2060.79 c 0,20.19 18.17,38.35 38.35,38.35 h 133.2 c 20.19,0 38.35,-18.16 38.35,-38.35 V 724.641 c 0,-20.18 -18.16,-38.352 -38.35,-38.352 h -133.2 c -20.18,0 -38.35,18.172 -38.35,38.352 V 2060.79"
         style="fill:#ffffff;fill-opacity:1;fill-rule:nonzero;stroke:none"
         transform="matrix(0.13333333,0,0,-0.13333333,0,299.30667)" />
      <path
         id="path20"
         d="m 4428.96,1497.67 v 153.96 c 0,20.17 16.14,38.34 38.35,38.34 h 133.21 c 20.18,0 38.35,-18.17 38.35,-38.34 V 724.641 c 0,-20.18 -18.17,-38.352 -38.35,-38.352 h -133.21 c -22.21,0 -38.35,18.172 -38.35,38.352 v 583.299 189.73"
         style="fill:#ffffff;fill-opacity:1;fill-rule:nonzero;stroke:none"
         transform="matrix(0.13333333,0,0,-0.13333333,0,299.30667)" />
      <path
         id="path21"
         d="m 3271.08,1376.42 c 4.32,-1.9 7.2,-0.94 9,-0.84 38.95,1.81 129.48,1.46 397.29,-8.95 70.75,-2.75 208.49,-22.61 238.76,-27.68 27.42,-4.59 54.63,-10.26 81.52,-17.36 29.2,-7.71 58.88,-13.43 88.15,-20.93 30.14,-7.73 60.64,-14.25 91.22,-20.13 30.08,-5.78 60.09,-12.01 90.69,-15.17 23.36,-2.42 46.6,-6.1 70.09,-7.28 19.14,-0.97 38.32,-2.27 57.46,-2.03 24.92,0.3 49.85,1.42 74.71,3.16 39.3,2.74 78.07,9.22 116.31,18.74 24.68,6.14 49.26,12.67 73.21,21.25 31.57,11.31 62.61,23.84 93.06,38.09 28.36,13.28 54.96,29.37 81.84,45.09 16.12,9.43 30.88,20.96 45.52,32.61 27.15,21.63 51.08,46.47 72.99,73.23 21.9,26.73 41.58,54.93 56.9,86.21 9.93,20.28 19.38,40.7 26.98,61.91 7.92,22.12 13.48,44.93 18.15,68.01 5.84,28.86 7.29,58 7.54,87.25 0.22,26.41 -2.46,52.57 -7.09,78.65 -4.64,26.07 -12.1,51.29 -20.25,76.37 -5.33,16.43 -12.9,31.97 -19.46,47.92 -7.15,17.39 -16.49,33.52 -25.88,49.67 -24.85,42.84 -57.26,79.22 -95.62,110.19 -32.22,26.01 -67.07,47.9 -105.61,63.61 -58.08,23.68 -118.03,32.12 -180.38,23.53 -35.35,-4.86 -69.55,-13.72 -102.79,-26.59 -26.06,-10.11 -50.5,-23.42 -73.7,-38.77 -24.05,-15.93 -46.07,-34.72 -64.58,-56.86 -27.51,-32.95 -49.21,-69.43 -64.32,-109.95 -7.79,-20.89 -11.37,-42.54 -16.11,-64.02 -1.66,-7.42 -1.79,-15.24 -2,-22.89 -1.1,-41.16 4.72,-81.36 18.68,-120.1 6.18,-17.1 14.03,-33.6 21.24,-50.31 1.32,-3.07 3.09,-5.98 4.91,-8.79 26.18,-40.77 59.51,-73.76 103.63,-94.93 31.12,-14.94 63.68,-23.44 98.5,-23.14 36.44,0.33 71.23,7.67 105.09,21 24.98,9.83 46.84,24 65.82,42.76 22.27,21.98 38.26,47.44 46.22,78.17 8.69,33.48 8.21,66.55 -1.55,99.37 -10.6,35.68 -31.05,65.15 -62.62,84.95 -28.95,18.15 -60.7,22.3 -93.92,11.15 -15.8,-5.32 -29.18,-14.07 -41.68,-24.77 -15.28,-13.1 -24.12,-29.63 -27.02,-49.34 -1.91,-12.89 -1.96,-25.81 1.38,-38.56 1.24,-4.64 2.28,-9.33 3.37,-13.99 3.1,-13.29 8.67,-25.21 17.59,-35.77 6.79,-8.04 12.62,-16.83 20.37,-24.12 4.32,-4.06 3.38,-8.72 -1.87,-11.88 -11.18,-6.74 -23.55,-8.66 -36.08,-6.12 -27.26,5.53 -49.77,19.23 -67.16,41.21 -14.51,18.36 -23.99,39.25 -29.47,61.71 -7.14,29.27 -7.48,58.72 0.12,88.27 10.89,42.27 34.65,75.32 69.62,100.78 7.34,5.36 14.1,11.49 22.25,15.79 43.02,22.69 110.69,33.11 159.03,25.39 11.33,-1.81 22.38,-5.33 33.54,-8.12 1.86,-0.46 4,-1.12 3.72,-3.55 -0.14,-1.24 -1.08,-2.73 -2.11,-3.48 -8.89,-6.51 -17.72,-13.11 -26.89,-19.21 -6.99,-4.66 -12.29,-10.78 -16.6,-17.7 -11.66,-18.76 -1.36,-44.12 19.74,-49.56 10.71,-2.76 18.92,1.38 25.55,9.1 6.36,7.4 6.18,15.64 0.39,25.31 -0.49,0.82 -1.09,1.58 -1.61,2.38 -5.99,9.4 -5.4,12.29 4.06,18.23 2.83,1.78 5.85,3.36 8.97,4.54 10.82,4.07 22.05,6.58 33.48,8.21 6.37,0.91 12.22,-0.2 17.87,-3.68 26.9,-16.61 49.61,-37.56 67.27,-63.87 2.4,-3.58 5.1,-6.95 7.64,-10.44 1.97,-2.71 4.54,-5.19 5.76,-8.21 6.85,-16.89 17.15,-32.15 23.04,-49.48 10.21,-30.05 17.92,-60.69 22.13,-92.19 1.8,-13.38 1.18,-26.8 0.88,-40.24 -0.68,-32.38 -6.8,-63.92 -16.96,-94.5 -8.32,-25.07 -19.73,-48.91 -34.75,-70.82 -1.6,-2.34 -3.44,-4.6 -5.51,-6.53 -1.55,-1.43 -3.79,-1.25 -5.11,0.43 -1.45,1.83 -2.71,3.96 -3.47,6.17 -2.32,6.8 -4.48,13.67 -6.5,20.57 -3.15,10.69 -8.5,20.28 -13.97,29.9 -4.95,8.71 -12.48,14.25 -20.62,19.52 -10.73,6.96 -31.64,2.62 -39.45,-7.41 -6.78,-8.69 -8.86,-17.87 -4.87,-28.24 4.63,-12.03 16.02,-16.94 28.01,-12.12 15.63,6.26 16.33,6.37 21.58,-8.84 8.31,-24.08 7.69,-48.1 -3.27,-71.4 -6.19,-13.15 -17.56,-21.5 -29.29,-28.96 -15.36,-9.79 -31.35,-18.58 -47.01,-27.9 -47.8,-28.45 -99.59,-46.89 -152.99,-61.42 -49.82,-13.55 -100.7,-19.75 -152.13,-21.14 -32.57,-0.87 -65.21,-0.56 -97.7,2.91 -2.37,0.26 -4.76,0.6 -7.08,1.15 -3.35,0.8 -4.56,4.16 -2.22,6.54 2.66,2.73 5.52,5.32 8.56,7.62 12.68,9.64 23.23,20.86 32.87,33.54 4.69,6.19 8.78,13.55 12.51,20.24 5.65,10.15 7,19.18 7.99,32.1 1.71,22.54 -11.19,40.44 -32.75,44.1 -11.37,1.93 -22.48,-2.49 -27.39,-11.48 -6.34,-11.57 -6.55,-25.25 10.11,-33.75 2.96,-1.5 6.38,-2.06 9.53,-3.21 6.9,-2.48 8.03,-5.23 4.46,-12 -2.45,-4.66 -4.96,-9.39 -8.15,-13.53 -12.11,-15.72 -26.43,-29.04 -43.61,-39.17 -22.1,-13.09 -46.29,-18.64 -71.63,-17.8 -12.32,0.41 -24.62,3.69 -36.8,6.16 -23.48,4.73 -46.89,9.8 -70.33,14.75 -2.34,0.49 -4.68,1.04 -7.02,1.56 -35.07,7.83 -70.02,16.34 -105.27,23.23 -21.23,4.15 -41.91,10.27 -62.99,14.79 -60.06,12.87 -112.66,22.27 -173.67,28.9 -50.25,5.46 -220.51,20.2 -228.51,20.85 -38.2,3.04 -81.76,2.18 -108.5,-0.76 -8.91,-0.98 -20.17,-2.57 -26.25,-4.07 -4.03,-0.97 -9.98,-6.98 -13.75,-10.98 -37.6,-40.03 -116.31,-121.09 -117.79,-152.86 -0.12,-2.75 1.2,-7.36 4.81,-8.95"
         style="fill:#ffffff;fill-opacity:1;fill-rule:nonzero;stroke:none"
         transform="matrix(0.13333333,0,0,-0.13333333,0,299.30667)" />
    </g>
  </g>
</svg>
